<?xml version="1.0" encoding="utf-8"?>
<!-- Generator: Adobe Illustrator 25.2.1, SVG Export Plug-In . SVG Version: 6.00 Build 0)  -->
<svg version="1.1" id="Camada_1" xmlns="http://www.w3.org/2000/svg" xmlns:xlink="http://www.w3.org/1999/xlink" x="0px" y="0px"
	 viewBox="0 0 809.3 629.9" style="enable-background:new 0 0 809.3 629.9;" xml:space="preserve">
<style type="text/css">
	.st0{fill:#F0F0F0;}
	.st1{fill:#F2F2F2;}
	.st2{fill:#FFFFFF;}
	.st3{fill:#2AFADF;}
	.st4{fill:#E6E6E6;}
	.st5{fill:#FFB8B8;}
	.st6{fill:#2F2E41;}
	.st7{fill:#3F3D56;}
	.st8{fill:#4B85FE;}
	.st9{fill:#FFB6B6;}
	.st10{fill:#9E616A;}
</style>
<path class="st0" d="M181.4,338.5c-36.6-36-52-73.6-43.5-105.8c10.9-41.3,59.6-69.9,133.4-78.4l0.3,2.4
	c-72.8,8.4-120.7,36.3-131.4,76.7c-8.3,31.4,6.9,68.1,42.9,103.5L181.4,338.5z"/>
<path class="st0" d="M534.4,466.3c-45.7,0-95.3-6.8-144.6-19.8c-61-16.1-116.9-40.5-161.6-70.4l1.3-2c44.6,29.8,100.2,54,160.9,70.1
	c54.9,14.5,110.1,21.3,159.8,19.5l0.1,2.4C545.1,466.2,539.8,466.3,534.4,466.3z"/>
<path class="st0" d="M639.2,451.3l-0.8-2.3c40.8-13.8,66.4-36.1,73.9-64.3c9.5-35.9-11.2-77.7-58.2-117.5
	c-47.3-40-115.5-73.2-192.1-93.5l0.6-2.3c76.9,20.4,145.4,53.7,193,93.9c47.8,40.4,68.8,83,59,119.9
	C706.9,414.4,680.8,437.3,639.2,451.3z"/>
<path class="st0" d="M264.1,467.3c-89.7-39.8-158.9-91.4-194.7-145.4l2-1.3c35.6,53.6,104.4,104.9,193.7,144.5L264.1,467.3z"/>
<path class="st0" d="M579.6,536.3c-9.3,0-18.7-0.2-28.2-0.6l0.1-2.4c71.4,3.1,134.5-5.5,182.3-24.7l0.9,2.2
	C693,527.6,639.8,536.3,579.6,536.3z"/>
<path class="st0" d="M527.6,156.4c-14.8-4.8-30.1-9.3-45.3-13.4c-87.8-23.2-174.1-31.5-249.6-23.9l-0.2-2.4
	c75.8-7.7,162.4,0.6,250.4,23.9c15.3,4.1,30.6,8.6,45.5,13.4L527.6,156.4z"/>
<path class="st0" d="M125.3,342.1c-36.6-36-52-73.6-43.5-105.8c10.9-41.3,59.6-69.9,133.4-78.4l0.3,2.4
	c-72.8,8.4-120.7,36.3-131.4,76.7c-8.3,31.2,6.9,68,42.9,103.4L125.3,342.1z"/>
<path class="st0" d="M478.3,469.9c-45.7,0-95.3-6.8-144.6-19.8c-61-16.1-116.9-40.5-161.6-70.4l1.3-2c44.6,29.8,100.2,54,160.9,70.1
	c54.9,14.5,110.1,21.3,159.8,19.5l0.1,2.4C489,469.8,483.7,469.9,478.3,469.9z"/>
<path class="st0" d="M583.1,454.9l-0.8-2.3c40.8-13.8,66.4-36.1,73.9-64.3c9.5-35.9-11.2-77.7-58.2-117.5
	c-47.3-40-115.5-73.2-192.1-93.5l0.6-2.3c76.9,20.4,145.4,53.7,193,93.9c47.8,40.4,68.8,83,59,119.9
	C650.8,418,624.7,440.8,583.1,454.9z"/>
<path class="st0" d="M208.1,470.9c-89.7-39.8-158.9-91.4-194.7-145.4l2-1.3C50.9,377.8,119.7,429.1,209,468.7L208.1,470.9z"/>
<path class="st0" d="M523.6,539.9c-9.3,0-18.7-0.2-28.2-0.6l0.1-2.4c71.4,3.1,134.5-5.5,182.3-24.7l0.9,2.2
	C636.9,531.2,583.7,539.9,523.6,539.9z"/>
<path class="st0" d="M471.5,160c-14.8-4.8-30.1-9.3-45.3-13.4c-87.8-23.2-174.1-31.5-249.6-23.9l-0.2-2.4
	c75.8-7.7,162.4,0.6,250.4,23.9c15.3,4.1,30.6,8.6,45.5,13.4L471.5,160z"/>
<path class="st1" d="M54,278.1c17.1-19.2,44.5-30.9,69.3-23.9C100.5,270.4,84,294.1,77,321.3c-2.7,10.5-4.6,22.4-13.3,28.8
	c-5.4,4-12.6,4.9-19.3,4s-13-3.5-19.2-6.1l-1.7,0.1C28.4,322.8,36.9,297.4,54,278.1z"/>
<path class="st2" d="M123.2,254.7c-20.7,5-39.3,16.4-53.2,32.6c-3,3.4-5.5,7.3-7.4,11.5c-1.7,4.2-2.2,8.7-1.5,13.1
	c0.6,4.1,1.6,8.3,1.1,12.5c-0.5,4.3-2.9,8.2-6.5,10.7c-4.4,3.2-9.6,4.6-14.8,5.8c-5.7,1.3-11.7,2.7-16.4,6.5
	c-0.6,0.5-1.3-0.4-0.7-0.9c8.1-6.6,19.5-5.8,28.5-10.6c4.2-2.2,7.8-5.8,8.6-10.6c0.8-4.2-0.3-8.5-0.9-12.7c-0.7-4.3-0.4-8.7,1-12.9
	c1.6-4.3,3.9-8.3,6.9-11.8c6.5-8,14.3-14.9,22.9-20.5c9.9-6.4,20.7-11.2,32.2-13.9C123.8,253.4,124,254.6,123.2,254.7L123.2,254.7z"
	/>
<path class="st2" d="M74.2,281.9c-5-5.6-5.2-13.9-0.5-19.7c0.5-0.6,1.4,0.1,0.9,0.7c-4.4,5.4-4.2,13.2,0.5,18.3
	C75.6,281.8,74.7,282.4,74.2,281.9z"/>
<path class="st2" d="M60.6,310c7.4,0.5,14.6-1.8,20.4-6.5c0.6-0.5,1.3,0.4,0.7,0.9c-6,4.8-13.6,7.2-21.2,6.7
	C59.7,311,59.9,309.9,60.6,310z"/>
<path class="st2" d="M101,262.6c1.4,2.5,4.1,4.1,7,4.3c0.7,0,0.6,1.2-0.2,1.1c-3.2-0.2-6.1-2-7.7-4.7c-0.2-0.3-0.1-0.6,0.1-0.8
	C100.5,262.3,100.8,262.3,101,262.6L101,262.6z"/>
<path class="st1" d="M158.5,334c-0.5,0-0.9,0-1.4,0c-6.1-0.1-12.3,0.2-18.4,1.1c-0.5,0.1-0.9,0.1-1.4,0.2
	c-14.6,2.2-28.7,7.1-41.6,14.5c-5.1,2.9-10,6.3-14.6,9.9c-6.4,5.1-12.9,11.1-20.3,13.7c-0.8,0.3-1.6,0.5-2.4,0.7l-34.6-23.9
	c-0.1-0.1-0.1-0.2-0.2-0.3l-1.4-0.9c0.2-0.2,0.5-0.4,0.7-0.6c0.1-0.1,0.3-0.2,0.4-0.4c0.1-0.1,0.2-0.2,0.3-0.2l0.1-0.1
	c0.1-0.1,0.2-0.1,0.2-0.2c1.3-1.2,2.7-2.3,4-3.5l0,0c10.3-8.8,21.3-16.8,33.3-22.9c0.4-0.2,0.7-0.4,1.1-0.5c5.4-2.7,11-5,16.8-6.8
	c3.2-1,6.4-1.8,9.6-2.4c8.4-1.7,17-2,25.5-1c16.9,2,33,9.4,43.5,22.6C158,333.3,158.3,333.7,158.5,334z"/>
<path class="st2" d="M158.1,334.4c-19.6-8.5-41.3-10.6-62.1-6c-4.5,0.9-8.8,2.5-12.8,4.8c-3.8,2.3-7,5.6-9.1,9.6
	c-2,3.6-3.7,7.6-6.6,10.7c-3,3.1-7.3,4.8-11.7,4.7c-5.4-0.1-10.4-2.1-15.3-4.2c-5.4-2.4-11-4.9-17-4.7c-0.7,0-0.7-1.1,0-1.1
	c10.5-0.4,19,7.1,29.1,8.7c4.7,0.7,9.7,0.1,13.3-3.3c3.2-2.9,4.9-7,6.9-10.7c2-3.9,4.9-7.2,8.5-9.7c3.9-2.5,8.1-4.2,12.6-5.3
	c10-2.5,20.4-3.3,30.7-2.6c11.8,0.8,23.3,3.6,34.1,8.3C159.4,333.7,158.8,334.7,158.1,334.4L158.1,334.4z"/>
<path class="st2" d="M102.6,326.6c-0.6-7.4,4.3-14.2,11.5-16c0.7-0.2,1,0.9,0.3,1.1c-6.7,1.7-11.3,8-10.7,14.9
	C103.8,327.3,102.7,327.3,102.6,326.6z"/>
<path class="st2" d="M74.9,340.8c5.6,4.8,12.8,7.4,20.2,7.1c0.7,0,0.7,1.1,0,1.1c-7.7,0.2-15.2-2.4-21-7.5
	C73.5,341.1,74.3,340.3,74.9,340.8L74.9,340.8z"/>
<path class="st2" d="M135.7,327.3c-0.4,2.9,0.8,5.7,3,7.6c0.6,0.5-0.2,1.3-0.8,0.8c-2.4-2.1-3.7-5.2-3.3-8.4c0-0.3,0.3-0.6,0.6-0.6
	C135.4,326.7,135.7,327,135.7,327.3L135.7,327.3z"/>
<path class="st1" d="M726,435.8c-9.7-23.9-31.5-44.1-57.2-45.8c16.1,22.9,23.6,50.8,21.1,78.7c-1,10.8-3.2,22.6,2.8,31.6
	c3.8,5.6,10.2,8.9,16.8,10.3s13.4,1.1,20.1,0.7l1.5,0.7C735.1,486.5,735.7,459.6,726,435.8z"/>
<path class="st2" d="M668.7,390.5c17.8,11.7,31.5,28.7,39.1,48.6c1.7,4.3,2.7,8.8,3.1,13.3c0.2,4.5-0.9,8.9-3,12.8
	c-1.9,3.7-4.3,7.3-5.3,11.4c-1,4.3,0,8.7,2.5,12.3c3,4.5,7.5,7.6,11.9,10.4c5,3.2,10.1,6.4,13.3,11.6c0.4,0.6,1.3,0,0.9-0.6
	c-5.4-9-16.4-12-23.2-19.6c-3.2-3.5-5.4-8-4.5-12.9c0.7-4.2,3.2-7.9,5.1-11.7c2.1-3.8,3.3-8.1,3.4-12.4c-0.1-4.6-0.9-9.1-2.5-13.4
	c-3.4-9.7-8.4-18.8-14.7-27c-7.1-9.4-15.8-17.5-25.6-23.9C668.6,389,668.1,390.1,668.7,390.5L668.7,390.5z"/>
<path class="st2" d="M705.8,432.5c6.5-3.6,9.5-11.4,7.1-18.4c-0.2-0.7-1.3-0.3-1.1,0.3c2.3,6.6-0.5,13.8-6.6,17.1
	C704.5,431.9,705.1,432.9,705.8,432.5L705.8,432.5z"/>
<path class="st2" d="M709.1,463.5c-7.1-2-13.2-6.6-17-12.9c-0.4-0.6-1.3,0-0.9,0.6c4,6.5,10.4,11.3,17.7,13.4
	C709.6,464.8,709.8,463.7,709.1,463.5L709.1,463.5z"/>
<path class="st2" d="M687,405.3c-2.2,1.9-5.2,2.5-8,1.7c-0.7-0.2-0.9,0.9-0.2,1.1c3.1,0.9,6.4,0.2,8.8-1.9c0.3-0.2,0.3-0.5,0.2-0.8
	C687.6,405.2,687.2,405.1,687,405.3L687,405.3z"/>
<path class="st1" d="M608.8,453.3c0.4,0.1,0.9,0.3,1.3,0.4c5.8,1.9,11.5,4.3,16.9,7.2c0.4,0.2,0.9,0.4,1.3,0.7
	c13,7,24.7,16.4,34.3,27.6c3.8,4.5,7.3,9.2,10.4,14.3c4.3,6.9,8.4,14.8,14.5,19.7c0.6,0.5,1.3,1,2,1.4l40.6-10.9
	c0.1-0.1,0.2-0.1,0.2-0.2l1.6-0.4c-0.1-0.3-0.3-0.5-0.4-0.8c-0.1-0.2-0.2-0.3-0.3-0.5c-0.1-0.1-0.1-0.2-0.2-0.3c0,0,0-0.1-0.1-0.1
	c0-0.1-0.1-0.2-0.1-0.3c-0.9-1.5-1.7-3.1-2.6-4.6l0,0c-6.7-11.7-14.4-23-23.7-32.7c-0.3-0.3-0.6-0.6-0.9-0.9
	c-4.2-4.4-8.7-8.4-13.5-12c-2.7-2-5.4-3.8-8.2-5.5c-7.3-4.4-15.3-7.6-23.7-9.5c-16.6-3.8-34.2-2.2-48.5,6.6
	C609.5,452.8,609.2,453,608.8,453.3z"/>
<path class="st2" d="M609,453.8c21.3-1.4,42.5,3.9,60.5,15.3c3.9,2.4,7.5,5.3,10.5,8.8c2.8,3.5,4.7,7.6,5.3,12.1
	c0.7,4.1,0.9,8.4,2.6,12.3c1.8,4,5.2,7,9.4,8.3c5.1,1.7,10.5,1.5,15.8,1.1c5.9-0.4,12-1,17.6,1.3c0.7,0.3,1.1-0.8,0.4-1.1
	c-9.7-3.9-20.3,0.3-30.3-1.6c-4.7-0.9-9.1-3.2-11.4-7.6c-2-3.8-2.2-8.2-2.9-12.4c-0.6-4.3-2.2-8.4-4.8-12c-2.8-3.6-6.2-6.7-10.1-9.2
	c-8.6-5.7-18.1-10-28-12.7c-11.3-3.2-23.1-4.4-34.9-3.7C608.1,452.7,608.3,453.8,609,453.8L609,453.8z"/>
<path class="st2" d="M664,465c3.1-6.8,0.8-14.8-5.4-18.9c-0.6-0.4-1.3,0.5-0.7,0.9c5.8,3.8,7.9,11.3,5,17.6
	C662.6,465.3,663.7,465.7,664,465L664,465z"/>
<path class="st2" d="M685.3,487.8c-6.9,2.7-14.5,2.6-21.4-0.1c-0.7-0.3-1.1,0.8-0.4,1.1c7.1,2.8,15.1,2.8,22.3,0
	C686.5,488.5,686,487.5,685.3,487.8L685.3,487.8z"/>
<path class="st2" d="M632.6,454.6c-0.6,2.8-2.6,5.2-5.4,6.2c-0.7,0.3-0.2,1.3,0.5,1c3-1.2,5.2-3.7,5.9-6.8c0.1-0.3-0.1-0.6-0.3-0.7
	C633,454.2,632.7,454.3,632.6,454.6L632.6,454.6z"/>
<circle class="st3" cx="538" cy="507.5" r="9.5"/>
<circle class="st4" cx="571.8" cy="344.9" r="9.5"/>
<circle class="st4" cx="394.2" cy="80.1" r="9.5"/>
<path class="st1" d="M194.2,446.3c0,2.4,0.1,4.9,0.2,7.3c0.2,2.9,0.5,5.7,0.9,8.6c1.4,9.6,4.1,18.9,8,27.7c0.2,0.4,0.4,0.9,0.6,1.3
	l0.3,0.7c0.1,0.2,0.2,0.4,0.3,0.7c0.1,0.3,0.3,0.6,0.4,0.8c0.2,0.3,0.3,0.7,0.5,1c0,0,0,0.1,0.1,0.1c0.1,0.3,0.3,0.6,0.5,0.9
	c0,0.1,0.1,0.1,0.1,0.2c0.2,0.3,0.4,0.7,0.5,1c0.2,0.4,0.4,0.7,0.6,1.1c0.5,0.9,1,1.8,1.5,2.7c0.1,0.3,0.3,0.5,0.5,0.8
	c0.1,0.2,0.3,0.5,0.4,0.7c0.1,0.2,0.2,0.3,0.3,0.5c0.2,0.3,0.3,0.5,0.5,0.8c0.4,0.6,0.8,1.2,1.1,1.8l0,0c0.2,0.3,0.4,0.5,0.5,0.8
	l0,0c0.5,0.8,1.1,1.6,1.6,2.4l0,0l0,0c0.4,0.6,0.9,1.3,1.4,1.9l0,0c0.3,0.4,0.6,0.8,0.9,1.2c0.2,0.3,0.5,0.7,0.7,1
	c0,0.1,0.1,0.1,0.2,0.2l0,0c0.1,0.1,0.1,0.2,0.2,0.3c1.1,1.4,2.2,2.7,3.3,4l0.2,0.2c0.1,0.1,0.1,0.1,0.2,0.2
	c0.1,0.1,0.2,0.2,0.3,0.3s0.2,0.2,0.3,0.3c5.9,6.6,12.5,12.5,19.8,17.5c1,0.7,2,1.3,3,2c0.2,0.2,0.5,0.3,0.8,0.5
	c0.1,0,0.1,0.1,0.2,0.2c0.1,0.1,0.3,0.2,0.4,0.2c0.1,0.1,0.3,0.2,0.4,0.2c0.5,0.3,1.1,0.7,1.6,1c0.1,0.1,0.3,0.2,0.4,0.2
	c0.1,0.1,0.3,0.2,0.4,0.2l0,0l0,0l0,0l0,0c0.7,0.4,1.4,0.8,2,1.1c0.4,0.2,0.8,0.4,1.1,0.6c0.9,0.5,1.7,0.9,2.6,1.3
	c0.3,0.2,0.6,0.3,0.9,0.5c0.3,0.1,0.5,0.2,0.8,0.4c0.1,0,0.1,0.1,0.2,0.1c0.2,0.1,0.4,0.2,0.7,0.3c0.2,0.1,0.5,0.2,0.7,0.3
	c0.3,0.1,0.5,0.2,0.8,0.3c1,0.5,2,0.9,3,1.3c3.6,1.5,7.3,2.8,11.1,3.8c0.2,0,0.4,0.1,0.5,0.2c1.6,0.4,3.2,0.9,4.9,1.2
	c2.8,0.7,5.7,1.2,8.6,1.6l0,0c0.4,0,0.7,0.1,1,0.2h0.1l0,0c0.4,0,0.8,0.1,1.2,0.2h0.1c0.4,0,0.7,0.1,1.1,0.1s0.8,0.1,1.2,0.1
	c0.3,0,0.6,0.1,0.9,0.1h0.1c0.3,0,0.5,0,0.8,0.1l0,0c0.2,0,0.5,0,0.7,0.1c2.8,0.2,5.6,0.3,8.4,0.3c3.1,0,6.1-0.1,9.1-0.4l0,0
	c0.7-0.1,1.3-0.1,1.9-0.2c0.2,0,0.3,0,0.5,0h0.1c0,0,0.1,0,0.2,0h0.1c0.2,0,0.4,0,0.7-0.1l0.8-0.1c0.2,0,0.5-0.1,0.8-0.1
	c0.1,0,0.1,0,0.2,0c0.2,0,0.4,0,0.5-0.1c0.1,0,0.2,0,0.3,0c0.2,0,0.4,0,0.5-0.1l0,0c5.5-0.8,10.9-2,16.2-3.7
	c0.3-0.1,0.6-0.2,0.8-0.3l0,0c0.1,0,0.2,0,0.2-0.1c0.8-0.2,1.5-0.5,2.2-0.8c1-0.3,2-0.7,3-1.1c0.3-0.1,0.5-0.2,0.8-0.3
	c0.5-0.2,1.1-0.4,1.6-0.7c0.9-0.4,1.8-0.8,2.8-1.2c0.8-0.4,1.7-0.8,2.5-1.2c0,0,0,0,0.1,0c0.2-0.1,0.4-0.2,0.6-0.3l0,0
	c4.6-2.2,9-4.7,13.3-7.6c1.4-0.9,2.7-1.8,4-2.8c1.1-0.8,2.1-1.6,3.1-2.4c5.1-4.1,9.9-8.6,14.2-13.6l0,0c0.3-0.3,0.6-0.7,0.9-1
	l0.1-0.1c0.2-0.2,0.4-0.5,0.6-0.7l0,0c0.2-0.3,0.5-0.6,0.7-0.9c0.1-0.1,0.1-0.1,0.2-0.2l0,0c0.2-0.2,0.4-0.5,0.6-0.7
	c0.1-0.1,0.2-0.2,0.3-0.4l0,0c0.6-0.7,1.2-1.5,1.7-2.2c0.2-0.2,0.3-0.4,0.5-0.6c0.7-1,1.4-2,2.1-3l0,0c0.3-0.4,0.5-0.8,0.8-1.1
	c0.2-0.4,0.5-0.8,0.8-1.1c0.2-0.4,0.5-0.8,0.8-1.2v-0.1c0.2-0.4,0.5-0.8,0.7-1.2c0.2-0.3,0.4-0.6,0.6-0.9c0.1-0.2,0.2-0.4,0.4-0.6
	c0-0.1,0.1-0.1,0.1-0.2c0.3-0.5,0.6-1,0.8-1.5c0.3-0.6,0.7-1.2,1-1.7c0.1-0.2,0.2-0.5,0.4-0.7c0-0.1,0.1-0.2,0.1-0.2
	c0.2-0.3,0.3-0.6,0.4-0.9c0.2-0.3,0.3-0.6,0.5-0.9c0.1-0.3,0.3-0.6,0.4-0.9c0.1-0.2,0.2-0.4,0.3-0.7l0,0c0-0.1,0.1-0.2,0.1-0.3l0,0
	c0.1-0.2,0.2-0.5,0.3-0.7c0.1-0.3,0.3-0.6,0.4-0.9c0.1-0.2,0.2-0.4,0.3-0.6c0.1-0.3,0.3-0.6,0.4-0.9s0.3-0.6,0.4-0.9
	c0-0.1,0.1-0.2,0.1-0.2c0.1-0.1,0.1-0.3,0.2-0.4c0.2-0.4,0.3-0.8,0.5-1.1c0.2-0.4,0.3-0.8,0.5-1.3c0.2-0.4,0.3-0.8,0.5-1.2l0.1-0.1
	c2.3-6.1,4.1-12.5,5.3-18.9l0,0c0.7-3.7,1.1-7.4,1.4-11.1c0-0.2,0-0.4,0-0.6c0.2-2.5,0.3-5.1,0.3-7.6c0-1.1,0-2.2,0-3.4
	c-0.7-23.4-9.1-46-23.8-64.2c-0.3-0.4-0.6-0.8-1-1.2c-0.3-0.4-0.7-0.8-1-1.2c-38.6-45.3-106.7-50.6-151.9-12
	c-8.2,7-15.4,15.3-21.1,24.4c-0.5,0.8-1,1.6-1.5,2.4s-0.9,1.6-1.4,2.4C198.9,409.7,194.2,427.8,194.2,446.3z"/>
<path class="st2" d="M297.6,375.8c17.7,4.5,35.9,7.2,54.1,7.8c2.8,0.2,5.5,0.1,8.3-0.1c6.1-0.5,11.3-2.4,17.1-3.5
	c2.8-0.5,5.9-0.9,8.7-1.4c-0.6-0.8-1.3-1.6-2-2.4c-6,0.5-12.2,2.2-18.3,3c-10.4,1.3-22-0.2-29.9-3.8c-3.8-1.8-6.8-4-10.6-5.7
	c-0.5-0.3-1.1-0.4-1.7-0.5c-1.1,0-2.2,0.2-3.1,0.8c-6.4,3.2-15.7,5.8-24.3,4.4C295.4,375,296.6,375.6,297.6,375.8z"/>
<path class="st2" d="M259.5,387.2c-0.1,0-0.2,0-0.2,0c0.3-0.2,0.6-0.4,0.9-0.7L259.5,387.2z"/>
<path class="st2" d="M208,393.6c3.6,0.3,7.2,0.5,10.8,0.6c2.8,0.1,5.5,0.1,8.3-0.1c6.1-0.5,11.3-2.4,17.1-3.5
	c5.3-1,11.8-1.4,15.1-3.5c-8.7-1.5-17.7,1.6-26.7,2.7c-7.3,0.9-14.6,0.5-21.8-1.1C209.8,390.3,208.9,391.9,208,393.6z"/>
<path class="st3" d="M251.5,541.5c0.9,0.5,1.7,0.9,2.6,1.3c0.3,0.2,0.6,0.3,0.9,0.5c0.3,0.1,0.5,0.2,0.8,0.4c0.1,0,0.1,0.1,0.2,0.1
	c0.2,0.1,0.4,0.2,0.7,0.3c0.2,0.1,0.5,0.2,0.7,0.3c0.3,0.1,0.5,0.2,0.8,0.3c1,0.5,2,0.9,3,1.3c3.6,1.5,7.3,2.8,11.1,3.8
	c0.2,0,0.4,0.1,0.5,0.2c1.6,0.4,3.2,0.9,4.9,1.2c2.8,0.7,5.7,1.2,8.6,1.6l0,0c0.4,0,0.7,0.1,1,0.2h0.1l0,0c0.4,0,0.8,0.1,1.2,0.2
	h0.1c0.4,0,0.7,0.1,1.1,0.1s0.8,0.1,1.2,0.1c0.3,0,0.6,0.1,0.9,0.1h0.1c0.3,0,0.5,0,0.8,0.1l0,0c0.2,0,0.5,0,0.7,0.1
	c2.8,0.2,5.6,0.3,8.4,0.3c3.1,0,6.1-0.1,9.1-0.4l0,0c0.7-0.1,1.3-0.1,1.9-0.2c0.2,0,0.3,0,0.5,0h0.1c0,0,0.1,0,0.2,0h0.1
	c0.2,0,0.4,0,0.7-0.1l0.8-0.1c0.2,0,0.5-0.1,0.8-0.1c0.1,0,0.1,0,0.2,0c0.2,0,0.4,0,0.5-0.1c0.1,0,0.2,0,0.3,0c0.2,0,0.4,0,0.5-0.1
	l0,0c5.5-0.8,10.9-2,16.2-3.7c0.3-0.1,0.6-0.2,0.8-0.3c-2.6-12.2-10.8-22.5-22-27.9c1.4-1.3,2.3-3,2.7-4.9c0.5-2.4,0.1-4.9-1.3-7
	c-1.3-2-3.3-3.4-5.7-3.9l-14.8-3.1c-5-1-9.8,2.2-10.8,7.2c-0.2,0.7-0.2,1.5-0.2,2.2C268.2,521.2,258,531.1,251.5,541.5z"/>
<circle class="st5" cx="295.2" cy="465.6" r="30.9"/>
<path class="st6" d="M276,492.2c-3.3-2.2-6.7-6.6-8.9-9.8c-6-8.6-8.1-19.4-5.7-29.6c0.4-2,1.3-3.9,2.7-5.4c1.5-1.4,3.8-2.1,5.6-1.1
	c-1-2.6-0.8-5.5,0.4-8c1.2-2.5,3.1-4.6,5.3-6.3c8.7-6.7,20.3-8.1,30.3-3.6c1.9,0.9-1.2-6,0.8-5.3c2,0.8,4.2,0.7,6.2-0.1
	c1.9-1,8.2,4.7,7.5,2.7c4.7,2.1,6.8,7.7,4.7,12.4c-0.6,1.3-1.4,2.4-2.5,3.3c-1.6,1.3-3.6,2.1-5.3,3.3c-6.3,4.5-8.3,12.9-4.7,19.7
	c-1.8-1.2-3.8-2.1-6-2.6s-4.4,0-6.1,1.5c-1.4,1.6-2.1,3.7-1.9,5.8c0.1,2.1,0.6,4.2,0.6,6.3c0.2,6.1,3.5,17.8-1.3,21.1
	C293.8,498.9,280.5,495.2,276,492.2z"/>
<path class="st2" d="M316.5,311c-0.7,0-1.3-0.1-1.9-0.4c-1.8-0.7-3-2.5-3-4.5v-4.9c0-2.1-1.7-3.9-3.9-3.9c-2.7,0-4.9-2.2-4.9-4.9
	v-67c0-2.7,2.2-4.9,4.9-4.9h221.8c2.7,0,4.9,2.2,4.9,4.9v67c0,2.7-2.2,4.9-4.9,4.9H333.7c-1,0-2,0.4-2.7,1.1l-11.1,11.1
	C319,310.5,317.7,311,316.5,311z"/>
<path class="st7" d="M316.5,312c-0.8,0-1.6-0.2-2.3-0.5c-2.2-0.9-3.6-3-3.6-5.4v-4.9c0-1.6-1.3-2.9-2.9-2.9c-3.2,0-5.9-2.6-5.9-5.9
	v-67c0-3.2,2.6-5.9,5.9-5.9h221.8c3.2,0,5.9,2.6,5.9,5.9v67c0,3.2-2.6,5.9-5.9,5.9H333.7c-0.8,0-1.5,0.3-2,0.8l-11.1,11.1
	C319.5,311.4,318,312,316.5,312z M307.7,221.7c-2.1,0-3.9,1.7-3.9,3.9v67c0,2.1,1.7,3.9,3.9,3.9c2.7,0,4.9,2.2,4.9,4.9v4.9
	c0,2.1,1.7,3.9,3.9,3.9c1,0,2-0.4,2.7-1.1l11.1-11.1c0.9-0.9,2.1-1.4,3.4-1.4h195.9c2.1,0,3.9-1.7,3.9-3.9v-67
	c0-2.1-1.7-3.9-3.9-3.9L307.7,221.7z"/>
<path class="st8" d="M510.5,251H330.6c-1.4,0-2.6-1.2-2.6-2.6s1.2-2.6,2.6-2.6h179.9c1.4,0,2.6,1.2,2.6,2.6S511.9,251,510.5,251z"/>
<path class="st4" d="M510.1,262H330.6c-1.4,0-2.6-1.2-2.6-2.6s1.2-2.6,2.6-2.6h179.5c1.4,0,2.6,1.2,2.6,2.6S511.6,262,510.1,262z"/>
<path class="st4" d="M510,273H330.6c-1.4,0-2.6-1.2-2.6-2.6s1.2-2.6,2.6-2.6H510c1.4,0,2.6,1.2,2.6,2.6S511.4,273,510,273z"/>
<path class="st1" d="M793.7,210.3c0,2.4-0.1,4.9-0.2,7.3c-0.2,2.9-0.5,5.7-0.9,8.6c-1.4,9.6-4.1,18.9-8,27.7
	c-0.2,0.4-0.4,0.9-0.6,1.3l-0.3,0.7c-0.1,0.2-0.2,0.4-0.3,0.6c-0.1,0.3-0.3,0.6-0.4,0.9c-0.2,0.4-0.3,0.7-0.5,1c0,0,0,0.1-0.1,0.1
	c-0.2,0.3-0.3,0.6-0.5,0.9c0,0.1-0.1,0.1-0.1,0.2c-0.2,0.3-0.3,0.7-0.5,1c-0.2,0.4-0.4,0.7-0.6,1.1c-0.5,0.9-1,1.8-1.5,2.6
	c-0.2,0.3-0.3,0.5-0.5,0.8c-0.1,0.2-0.3,0.5-0.4,0.7c-0.1,0.2-0.2,0.3-0.3,0.5c-0.2,0.3-0.3,0.5-0.5,0.8c-0.4,0.6-0.8,1.2-1.1,1.8
	l0,0c-0.2,0.3-0.3,0.5-0.5,0.8l0,0c-0.5,0.8-1.1,1.6-1.6,2.4l0,0l0,0c-0.4,0.6-0.9,1.3-1.3,1.9l0,0c-0.3,0.4-0.6,0.8-0.9,1.2
	c-0.2,0.3-0.5,0.6-0.7,1c0,0.1-0.1,0.1-0.2,0.2l0,0c-0.1,0.1-0.1,0.2-0.2,0.3c-1.1,1.4-2.2,2.7-3.3,4l-0.2,0.2
	c-0.1,0.1-0.1,0.1-0.2,0.2c-0.1,0.1-0.2,0.2-0.3,0.3c-0.1,0.1-0.2,0.2-0.3,0.3c-5.9,6.6-12.5,12.5-19.8,17.5c-1,0.7-2,1.3-3,1.9
	c-0.2,0.2-0.5,0.3-0.8,0.5c-0.1,0-0.2,0.1-0.2,0.2c-0.1,0.1-0.3,0.2-0.4,0.2c-0.1,0.1-0.3,0.2-0.4,0.2c-0.5,0.3-1.1,0.7-1.6,1
	c-0.1,0.1-0.3,0.2-0.4,0.2c-0.1,0.1-0.3,0.2-0.4,0.2l0,0l0,0l0,0l0,0c-0.7,0.4-1.4,0.8-2,1.1c-0.4,0.2-0.8,0.4-1.1,0.6
	c-0.9,0.5-1.7,0.9-2.6,1.3c-0.3,0.2-0.6,0.3-0.9,0.5c-0.3,0.1-0.5,0.2-0.8,0.4c-0.1,0-0.2,0.1-0.2,0.1c-0.2,0.1-0.4,0.2-0.7,0.3
	c-0.2,0.1-0.5,0.2-0.7,0.3c-0.3,0.1-0.5,0.2-0.8,0.3c-1,0.5-2,0.9-3,1.3c-3.6,1.5-7.3,2.8-11.1,3.8c-0.2,0-0.3,0.1-0.5,0.2
	c-1.6,0.5-3.2,0.9-4.9,1.2c-2.8,0.7-5.7,1.2-8.6,1.6l0,0c-0.3,0-0.7,0.1-1,0.2h-0.1l0,0c-0.4,0-0.8,0.1-1.2,0.2h-0.1
	c-0.4,0-0.7,0.1-1.1,0.1c-0.4,0-0.8,0.1-1.2,0.1c-0.3,0-0.6,0.1-0.9,0.1h-0.1c-0.3,0-0.5,0-0.8,0.1l0,0c-0.2,0-0.5,0-0.7,0.1
	c-2.8,0.2-5.6,0.3-8.4,0.3c-3.1,0-6.1-0.1-9.1-0.4l0,0c-0.7-0.1-1.3-0.1-1.9-0.2c-0.2,0-0.3,0-0.5,0h-0.1c0,0-0.1,0-0.2,0h-0.1
	c-0.2,0-0.4,0-0.7-0.1l-0.8-0.1c-0.2,0-0.5-0.1-0.8-0.1c-0.1,0-0.1,0-0.2,0c-0.2,0-0.4,0-0.5-0.1c-0.1,0-0.2,0-0.3,0
	c-0.2,0-0.3,0-0.5-0.1l0,0c-5.5-0.8-10.9-2-16.2-3.7c-0.3-0.1-0.6-0.2-0.8-0.3l0,0c-0.1,0-0.2,0-0.2-0.1c-0.8-0.2-1.5-0.5-2.2-0.8
	c-1-0.3-2-0.7-3-1.1c-0.3-0.1-0.5-0.2-0.8-0.3c-0.5-0.2-1.1-0.4-1.6-0.7c-0.9-0.4-1.8-0.8-2.8-1.2c-0.8-0.4-1.7-0.8-2.5-1.2
	c0,0,0,0-0.1,0c-0.2-0.1-0.4-0.2-0.6-0.3l0,0c-4.6-2.2-9-4.7-13.3-7.6c-1.4-0.9-2.7-1.8-4-2.8c-1.1-0.8-2.1-1.6-3.1-2.4
	c-5.1-4.1-9.9-8.6-14.2-13.6l0,0c-0.3-0.3-0.6-0.7-0.9-1l-0.1-0.1c-0.2-0.2-0.4-0.5-0.6-0.7l0,0c-0.2-0.3-0.5-0.6-0.7-0.9
	c-0.1-0.1-0.1-0.1-0.2-0.2l0,0c-0.2-0.2-0.4-0.5-0.6-0.7c-0.1-0.1-0.2-0.2-0.3-0.4l0,0c-0.6-0.7-1.2-1.5-1.7-2.2
	c-0.2-0.2-0.3-0.4-0.5-0.6c-0.7-1-1.4-2-2.1-3l0,0c-0.3-0.4-0.5-0.8-0.8-1.1c-0.2-0.4-0.5-0.8-0.8-1.1c-0.2-0.4-0.5-0.8-0.8-1.2
	v-0.1c-0.2-0.4-0.5-0.8-0.7-1.2c-0.2-0.3-0.4-0.6-0.6-0.9c-0.1-0.2-0.2-0.4-0.4-0.6c0-0.1-0.1-0.1-0.1-0.2c-0.3-0.5-0.6-1-0.8-1.5
	c-0.3-0.6-0.7-1.1-1-1.7c-0.1-0.2-0.2-0.5-0.4-0.7c0-0.1-0.1-0.2-0.1-0.2c-0.2-0.3-0.3-0.6-0.4-0.9c-0.2-0.3-0.3-0.6-0.5-0.9
	c-0.1-0.3-0.3-0.6-0.4-0.9c-0.1-0.2-0.2-0.4-0.3-0.7l0,0c0-0.1-0.1-0.2-0.1-0.3l0,0c-0.1-0.2-0.2-0.5-0.3-0.7
	c-0.1-0.3-0.3-0.6-0.4-0.9c-0.1-0.2-0.2-0.4-0.3-0.6c-0.1-0.3-0.3-0.6-0.4-0.9c-0.1-0.3-0.3-0.6-0.4-0.9c0-0.1-0.1-0.2-0.1-0.2
	c-0.1-0.1-0.1-0.3-0.2-0.4c-0.2-0.4-0.3-0.8-0.5-1.1c-0.2-0.4-0.3-0.9-0.5-1.3c-0.2-0.4-0.3-0.8-0.5-1.2l-0.1-0.1
	c-2.3-6.1-4.1-12.5-5.3-18.9l0,0c-0.7-3.7-1.1-7.4-1.4-11.1c0-0.2,0-0.4,0-0.6c-0.2-2.5-0.3-5.1-0.3-7.6c0-1.1,0-2.2,0-3.4
	c0.7-23.4,9.1-46,23.8-64.2c0.3-0.4,0.6-0.8,1-1.2c0.3-0.4,0.7-0.8,1-1.2c38.6-45.3,106.7-50.6,151.9-12c8.2,7,15.4,15.3,21.1,24.4
	c0.5,0.8,1,1.6,1.5,2.4c0.5,0.8,0.9,1.6,1.4,2.4C789,173.7,793.8,191.8,793.7,210.3z"/>
<path class="st2" d="M690.3,139.8c-17.7,4.5-35.9,7.2-54.1,7.8c-2.8,0.2-5.5,0.1-8.3-0.1c-6.1-0.5-11.3-2.4-17.1-3.5
	c-2.8-0.5-5.9-0.9-8.7-1.4c0.6-0.8,1.3-1.6,2-2.4c6,0.5,12.2,2.2,18.3,3c10.4,1.3,22-0.2,29.9-3.8c3.8-1.8,6.8-4,10.6-5.7
	c0.5-0.3,1.1-0.4,1.7-0.5c1.1,0,2.2,0.2,3.1,0.8c6.4,3.2,15.7,5.8,24.3,4.4C692.6,139,691.3,139.6,690.3,139.8z"/>
<path class="st2" d="M728.4,151.2c0.1,0,0.2,0,0.2,0c-0.3-0.2-0.6-0.4-0.9-0.7L728.4,151.2z"/>
<path class="st2" d="M780,157.6c-3.6,0.3-7.2,0.5-10.8,0.6c-2.8,0.1-5.5,0.1-8.3-0.1c-6.1-0.5-11.3-2.4-17.1-3.5
	c-5.3-1-11.8-1.4-15.1-3.5c8.7-1.5,17.7,1.6,26.7,2.7c7.3,0.9,14.6,0.5,21.8-1.1C778.1,154.3,779,155.9,780,157.6z"/>
<ellipse class="st9" cx="673.9" cy="224.4" rx="32.4" ry="33.1"/>
<path class="st3" d="M736.4,305.5c-0.9,0.5-1.7,0.9-2.6,1.3c-0.3,0.2-0.6,0.3-0.9,0.5c-0.3,0.1-0.5,0.2-0.8,0.4
	c-0.1,0-0.2,0.1-0.2,0.1c-0.2,0.1-0.4,0.2-0.7,0.3c-0.2,0.1-0.5,0.2-0.7,0.3c-0.3,0.1-0.5,0.2-0.8,0.3c-1,0.5-2,0.9-3,1.3
	c-3.6,1.5-7.3,2.8-11.1,3.8c-0.2,0-0.3,0.1-0.5,0.2c-1.6,0.4-3.2,0.9-4.9,1.2c-2.8,0.7-5.7,1.2-8.6,1.6l0,0c-0.3,0-0.7,0.1-1,0.2
	h-0.1l0,0c-0.4,0-0.8,0.1-1.2,0.2h-0.1c-0.4,0-0.7,0.1-1.1,0.1c-0.4,0-0.8,0.1-1.2,0.1c-0.3,0-0.6,0.1-0.9,0.1h-0.1
	c-0.3,0-0.5,0-0.8,0.1l0,0c-0.2,0-0.5,0-0.7,0.1c-2.8,0.2-5.6,0.3-8.4,0.3c-3.1,0-6.1-0.1-9.1-0.4l0,0c-0.7-0.1-1.3-0.1-1.9-0.2
	c-0.2,0-0.3,0-0.5,0h-0.1c0,0-0.1,0-0.2,0h-0.1c-0.2,0-0.4,0-0.7-0.1l-0.8-0.1c-0.2,0-0.5-0.1-0.8-0.1c-0.1,0-0.1,0-0.2,0
	c-0.2,0-0.4,0-0.5-0.1c-0.1,0-0.2,0-0.3,0c-0.2,0-0.3,0-0.5-0.1l0,0c-5.5-0.8-10.9-2-16.2-3.7c-0.3-0.1-0.6-0.2-0.8-0.3
	c2.6-12.2,10.8-22.5,22-27.9c-1.4-1.3-2.3-3-2.7-4.9c-0.5-2.4-0.1-4.9,1.3-7c1.3-2,3.3-3.4,5.7-3.9l14.8-3.1c5-1,9.8,2.2,10.8,7.2
	c0.2,0.7,0.2,1.5,0.2,2.2C719.7,285.2,729.9,295.1,736.4,305.5z"/>
<path class="st6" d="M760.4,210c-5.5-6.4-8.1-14.9-12.5-22.2s-12-13.8-20.1-12.1c-5.6,1.2-9.9,6.1-12.1,11.6
	c-2.2,5.5-2.6,11.5-3,17.5c0.1-12.2-7.9-24-18.9-27.9s-24.3,0.4-31.2,10.2c-6.3-5.8-15.9-6-22.4-0.5c-6.2,5.5-7.6,16.1-3,23.2
	s14.5,9.7,21.7,5.8l2.6,2.4c-1.4,5.1,1.4,11,6.1,12.9c3.8,1.5,9.2,1.3,10.6,5.3c1,2.8-0.9,5.8-2.9,7.9c-2,2.2-4.3,4.4-4.6,7.3
	c-0.4,4.5,4.3,7.6,8.5,8.6c10.2,2.3,21.5-2.4,27.3-11.4c0.1-0.2,0.2-0.3,0.4-0.5c6.6-8.5,9.5-19.4,7.9-30c-0.3-2.1,0-3.6,1.4-4.1
	c6.2-2.1,23.5,2.3,28.7,6.4c5.2,4,9.4,9.4,14.5,13.6c5,4.3,11.5,7.6,17.9,6.4c5.1-0.9,9.5-4.7,12.4-9.2s4.6-9.7,6.1-14.9
	C784.6,222.9,769.1,220.1,760.4,210z"/>
<path class="st1" d="M96.2,143.3c0,2.4,0.1,4.9,0.2,7.3c0.2,2.9,0.5,5.7,0.9,8.6c1.4,9.6,4.1,18.9,8,27.7c0.2,0.4,0.4,0.9,0.6,1.3
	l0.3,0.7c0.1,0.2,0.2,0.4,0.3,0.6c0.1,0.3,0.3,0.6,0.4,0.9c0.2,0.4,0.3,0.7,0.5,1c0,0,0,0.1,0.1,0.1c0.1,0.3,0.3,0.6,0.5,0.9
	c0,0.1,0.1,0.1,0.1,0.2c0.2,0.3,0.4,0.7,0.5,1c0.2,0.4,0.4,0.7,0.6,1.1c0.5,0.9,1,1.8,1.5,2.6c0.1,0.3,0.3,0.5,0.5,0.8
	c0.1,0.2,0.3,0.5,0.4,0.7s0.2,0.3,0.3,0.5c0.2,0.3,0.3,0.5,0.5,0.8c0.4,0.6,0.8,1.2,1.1,1.8l0,0c0.2,0.3,0.4,0.5,0.5,0.8l0,0
	c0.5,0.8,1.1,1.6,1.6,2.4l0,0l0,0c0.4,0.6,0.9,1.3,1.4,1.9l0,0c0.3,0.4,0.6,0.8,0.9,1.2c0.2,0.3,0.5,0.6,0.7,1
	c0,0.1,0.1,0.1,0.2,0.2l0,0c0.1,0.1,0.1,0.2,0.2,0.3c1.1,1.4,2.2,2.7,3.3,4l0.2,0.2c0.1,0.1,0.1,0.1,0.2,0.2
	c0.1,0.1,0.2,0.2,0.3,0.3c0.1,0.1,0.2,0.2,0.3,0.3c5.9,6.6,12.5,12.5,19.8,17.5c1,0.7,2,1.3,3,2c0.2,0.2,0.5,0.3,0.8,0.5
	c0.1,0,0.1,0.1,0.2,0.1c0.1,0.1,0.3,0.2,0.4,0.2c0.1,0.1,0.3,0.2,0.4,0.2c0.5,0.3,1.1,0.6,1.6,1c0.1,0.1,0.3,0.2,0.4,0.2
	c0.1,0.1,0.3,0.1,0.4,0.2l0,0l0,0l0,0l0,0c0.7,0.4,1.4,0.8,2,1.1c0.4,0.2,0.8,0.4,1.1,0.6c0.9,0.5,1.7,0.9,2.6,1.4
	c0.3,0.1,0.6,0.3,0.9,0.5c0.3,0.1,0.5,0.2,0.8,0.4c0.1,0,0.1,0.1,0.2,0.1c0.2,0.1,0.4,0.2,0.6,0.3c0.2,0.1,0.5,0.2,0.7,0.3
	c0.3,0.1,0.5,0.2,0.8,0.4c1,0.5,2,0.9,3,1.3c3.6,1.5,7.3,2.8,11.1,3.8c0.2,0,0.4,0.1,0.5,0.1c1.6,0.4,3.2,0.9,4.9,1.2
	c2.9,0.7,5.7,1.2,8.6,1.6l0,0c0.4,0,0.7,0.1,1,0.1h0.1l0,0c0.4,0,0.8,0.1,1.1,0.1h0.1c0.4,0,0.7,0.1,1.1,0.1c0.4,0,0.8,0.1,1.2,0.1
	c0.3,0,0.6,0.1,0.9,0.1h0.1c0.3,0,0.5,0,0.8,0.1l0,0c0.2,0,0.5,0,0.7,0.1c2.8,0.2,5.6,0.3,8.4,0.3c3.1,0,6.1-0.1,9.1-0.4l0,0
	c0.6-0.1,1.3-0.1,1.9-0.2c0.2,0,0.3,0,0.5,0h0.1c0,0,0.1,0,0.2,0h0.1c0.2,0,0.4,0,0.7-0.1l0.8-0.1c0.2,0,0.5-0.1,0.8-0.1
	c0.1,0,0.1,0,0.2,0c0.2,0,0.4,0,0.5-0.1c0.1,0,0.2,0,0.3,0c0.2,0,0.4,0,0.5-0.1l0,0c5.5-0.8,10.9-2,16.2-3.6
	c0.3-0.1,0.6-0.2,0.8-0.3l0,0c0.1,0,0.2,0,0.2-0.1c0.8-0.2,1.5-0.5,2.2-0.8c1-0.3,2-0.7,3-1.1c0.3-0.1,0.5-0.2,0.8-0.3
	c0.5-0.2,1.1-0.4,1.6-0.6c0.9-0.4,1.8-0.8,2.8-1.2c0.9-0.4,1.7-0.8,2.5-1.2c0,0,0,0,0.1,0c0.2-0.1,0.4-0.2,0.6-0.3l0,0
	c4.6-2.2,9-4.7,13.3-7.6c1.4-0.9,2.7-1.9,4-2.8c1.1-0.8,2.1-1.6,3.1-2.4c5.1-4.1,9.9-8.6,14.2-13.6l0,0c0.3-0.3,0.6-0.7,0.9-1
	l0.1-0.1c0.2-0.2,0.4-0.5,0.6-0.7l0,0c0.2-0.3,0.5-0.6,0.7-0.9c0.1-0.1,0.1-0.1,0.2-0.2l0,0c0.2-0.2,0.4-0.5,0.6-0.7
	c0.1-0.1,0.2-0.2,0.3-0.4l0,0c0.6-0.7,1.2-1.5,1.7-2.2c0.1-0.2,0.3-0.4,0.5-0.6c0.7-1,1.4-2,2.1-3l0,0c0.3-0.4,0.5-0.8,0.8-1.1
	c0.2-0.4,0.5-0.8,0.8-1.1c0.2-0.4,0.5-0.8,0.8-1.2v-0.1c0.2-0.4,0.5-0.8,0.7-1.2c0.2-0.3,0.4-0.6,0.6-0.9c0.1-0.2,0.2-0.4,0.4-0.6
	c0-0.1,0.1-0.1,0.1-0.2c0.3-0.5,0.6-1,0.8-1.5c0.3-0.6,0.7-1.1,1-1.7c0.1-0.2,0.2-0.5,0.4-0.7c0-0.1,0.1-0.2,0.1-0.2
	c0.1-0.3,0.3-0.6,0.4-0.9c0.1-0.3,0.3-0.6,0.5-0.9c0.1-0.3,0.3-0.6,0.4-0.9c0.1-0.2,0.2-0.4,0.3-0.7l0,0c0-0.1,0.1-0.2,0.1-0.3l0,0
	c0.1-0.2,0.2-0.5,0.3-0.7c0.1-0.3,0.3-0.6,0.4-0.9c0.1-0.2,0.2-0.4,0.3-0.6c0.1-0.3,0.3-0.6,0.4-0.9c0.1-0.3,0.3-0.6,0.4-0.9
	c0-0.1,0.1-0.2,0.1-0.2c0.1-0.1,0.1-0.3,0.2-0.4c0.2-0.4,0.3-0.8,0.5-1.1c0.2-0.4,0.4-0.9,0.5-1.3c0.2-0.4,0.3-0.8,0.5-1.2l0.1-0.1
	c2.3-6.1,4.1-12.5,5.3-18.9l0,0c0.7-3.7,1.1-7.4,1.4-11.1c0-0.2,0-0.4,0-0.6c0.2-2.5,0.3-5.1,0.3-7.6c0-1.1,0-2.2,0-3.4
	c-0.7-23.4-9.1-46-23.8-64.2c-0.3-0.4-0.6-0.8-1-1.2c-0.3-0.4-0.7-0.8-1-1.2c-38.6-45.3-106.7-50.6-151.9-12
	c-8.2,7-15.4,15.3-21.1,24.4c-0.5,0.8-1,1.6-1.5,2.4s-0.9,1.6-1.4,2.4C100.9,106.7,96.2,124.8,96.2,143.3z"/>
<path class="st2" d="M199.6,72.8c17.7,4.5,35.9,7.2,54.1,7.8c2.8,0.2,5.5,0.1,8.3-0.1c6.1-0.5,11.3-2.4,17.1-3.5
	c2.8-0.5,5.9-0.9,8.7-1.4c-0.6-0.8-1.3-1.6-2-2.4c-6,0.5-12.2,2.2-18.3,3c-10.4,1.3-22-0.2-29.9-3.8c-3.8-1.8-6.8-4-10.6-5.7
	c-0.5-0.3-1.1-0.4-1.7-0.5c-1.1,0-2.2,0.2-3.1,0.8c-6.4,3.2-15.7,5.8-24.3,4.4C197.4,72,198.6,72.6,199.6,72.8z"/>
<path class="st2" d="M161.5,84.2c-0.1,0-0.2,0-0.2,0c0.3-0.2,0.6-0.4,0.9-0.7L161.5,84.2z"/>
<path class="st2" d="M110,90.6c3.6,0.3,7.2,0.5,10.8,0.6c2.8,0.1,5.5,0.1,8.3-0.1c6.1-0.5,11.3-2.4,17.1-3.5
	c5.3-1,11.8-1.4,15.1-3.5c-8.7-1.5-17.7,1.6-26.7,2.7c-7.3,0.9-14.6,0.5-21.8-1.1C111.8,87.3,110.9,88.9,110,90.6z"/>
<path class="st8" d="M153.5,238.5c0.9,0.5,1.7,0.9,2.6,1.4c0.3,0.1,0.6,0.3,0.9,0.5c0.3,0.1,0.5,0.2,0.8,0.4c0.1,0,0.1,0.1,0.2,0.1
	c0.2,0.1,0.4,0.2,0.6,0.3c0.2,0.1,0.5,0.2,0.7,0.3c0.3,0.1,0.5,0.2,0.8,0.4c1,0.5,2,0.9,3,1.3c3.6,1.5,7.3,2.8,11.1,3.8
	c0.2,0,0.4,0.1,0.5,0.1c1.6,0.5,3.2,0.9,4.9,1.2c2.9,0.7,5.7,1.2,8.6,1.6l0,0c0.4,0,0.7,0.1,1,0.1h0.1l0,0c0.4,0,0.8,0.1,1.1,0.1
	h0.1c0.4,0,0.7,0.1,1.1,0.1c0.4,0,0.8,0.1,1.2,0.1c0.3,0,0.6,0.1,0.9,0.1h0.1c0.3,0,0.5,0,0.8,0.1l0,0c0.2,0,0.5,0,0.7,0.1
	c2.8,0.2,5.6,0.3,8.4,0.3c3.1,0,6.1-0.1,9.1-0.4l0,0c0.6-0.1,1.3-0.1,1.9-0.2c0.2,0,0.3,0,0.5,0h0.1c0,0,0.1,0,0.2,0h0.1
	c0.2,0,0.4,0,0.7-0.1l0.8-0.1c0.2,0,0.5-0.1,0.8-0.1c0.1,0,0.1,0,0.2,0c0.2,0,0.4,0,0.5-0.1c0.1,0,0.2,0,0.3,0c0.2,0,0.4,0,0.5-0.1
	l0,0c5.5-0.8,10.9-2,16.2-3.6c0.3-0.1,0.6-0.2,0.8-0.3c-2.6-12.2-10.8-22.5-22-27.9c1.4-1.3,2.3-3,2.7-4.9c0.5-2.4,0.1-4.9-1.3-7
	c-1.3-2-3.3-3.4-5.7-3.9l-14.8-3.1c-5-1-9.8,2.2-10.8,7.2c-0.2,0.7-0.2,1.5-0.2,2.2C170.2,218.2,160,228.1,153.5,238.5z"/>
<circle class="st10" cx="212.1" cy="153.2" r="36.1"/>
<path class="st6" d="M207,187.4c-9,2.4-19-0.8-26-7s-11.5-14.9-14-23.9c-1.9-6.6-2.7-13.9,0.2-20.1s10.8-10.4,16.9-7.2
	c-3.8-4.4-1.9-11.6,2.5-15.4s10.4-4.8,16.2-5.4c8.3-0.9,16.9-0.9,24.9,1.8s15.1,8.6,17.6,16.6c5.2,2.4,11.4,1,15.1-3.4
	c0.9,5.1-1.6,10.2-6.3,12.4l12.2-3.9c2.1,4.4-1.6,9.9-6.3,11.3c-4.7,1.4-9.7-0.1-14.2-2.2s-8.8-4.6-13.6-5.4s-10.5,0.8-12.7,5.1
	c-1.2,2.3-1.2,5-1.9,7.4s-2.4,5-5,5.2c-1.6,0.1-3.2-0.7-4.8-0.6c-2,0.4-3.6,2-4.1,4c-0.4,2-0.4,4,0,6l3.1,23.6L207,187.4z"/>
</svg>
